<svg width="48" height="48" viewBox="0 0 48 48" fill="none" xmlns="http://www.w3.org/2000/svg">
<path fill-rule="evenodd" clip-rule="evenodd" d="M13.8535 23.6147V8.47688C13.8536 7.82139 13.9961 7.17374 14.2712 6.57876C14.5462 5.98378 14.9473 5.45567 15.4466 5.03099C15.9459 4.60631 16.5316 4.29519 17.163 4.11917C17.7944 3.94316 18.4565 3.90644 19.1035 4.01157C26.4959 5.22095 34.0358 5.22095 41.4282 4.01157V4.01157C42.0752 3.90644 42.7373 3.94316 43.3687 4.11917C44.0002 4.29519 44.5858 4.60631 45.0851 5.03099C45.5844 5.45567 45.9855 5.98378 46.2606 6.57876C46.5356 7.17374 46.6781 7.82139 46.6782 8.47688V25.5141C46.6791 28.5383 45.7043 31.4822 43.8989 33.9084C42.0934 36.3345 39.5534 38.1136 36.6563 38.9813L32.0729 40.3481C30.9001 40.6988 29.6504 40.6988 28.4776 40.3481L23.8895 38.9813C21.3934 38.2385 19.1535 36.8153 17.4207 34.8713L13.8535 23.6147Z" fill="#FFE66D"/>
<path fill-rule="evenodd" clip-rule="evenodd" d="M17.0344 19.5253C17.0344 16.4006 17.0344 12.3431 17.0344 9.68152C17.0343 9.33705 17.1077 8.99653 17.2498 8.6827C17.3918 8.36888 17.5992 8.08898 17.858 7.86171C18.1169 7.63444 18.4213 7.46504 18.7508 7.36483C19.0804 7.26461 19.4276 7.23589 19.7691 7.28059C26.7405 8.17535 33.7977 8.17535 40.7691 7.28059C41.1109 7.23575 41.4583 7.26439 41.788 7.36458C42.1178 7.46478 42.4224 7.63423 42.6815 7.8616C42.9406 8.08897 43.1481 8.36902 43.2902 8.68303C43.4323 8.99704 43.5058 9.33778 43.5057 9.68246V24.0543C43.5053 26.793 42.621 29.4585 40.9842 31.6543C39.3475 33.8501 37.0458 35.4591 34.4213 36.2418L32.0663 36.945C30.8937 37.2946 29.6445 37.2946 28.4719 36.945L26.116 36.2418C23.8924 35.58 21.8927 34.3212 20.3344 32.6025L17.0344 19.5253Z" fill="url(#paint0_linear_408_172)"/>
<path fill-rule="evenodd" clip-rule="evenodd" d="M27.7426 26.8444C27.927 26.701 28.0705 26.5115 28.1585 26.2951C28.2466 26.0787 28.2761 25.843 28.2442 25.6116C28.0285 24.0459 27.5373 20.4797 27.3207 18.9103C27.2905 18.69 27.189 18.4856 27.0317 18.3284C26.8745 18.1711 26.6701 18.0696 26.4498 18.0394L19.7504 17.1159C19.519 17.0841 19.2833 17.1137 19.0669 17.2017C18.8505 17.2898 18.6611 17.4331 18.5176 17.6175C16.4148 20.3203 8.00073 31.14 8.00073 31.14L14.222 37.3603L27.7426 26.8444Z" fill="#99F4F7"/>
<path fill-rule="evenodd" clip-rule="evenodd" d="M8.05698 31.1963L8.00073 31.14C8.00073 31.14 16.4148 20.3203 18.5176 17.6175C18.6611 17.4331 18.8505 17.2898 19.0669 17.2017C19.2833 17.1137 19.519 17.0841 19.7504 17.1159L26.4507 18.0394C26.6694 18.0696 26.8724 18.1699 27.0292 18.3253L10.8601 33.9984L8.05698 31.1963Z" fill="#C0FDFF"/>
<path fill-rule="evenodd" clip-rule="evenodd" d="M13.7409 40.5131C13.6703 40.5838 13.5864 40.64 13.494 40.6783C13.4017 40.7166 13.3027 40.7363 13.2027 40.7363C13.1028 40.7363 13.0038 40.7166 12.9115 40.6783C12.8191 40.64 12.7352 40.5838 12.6646 40.5131L4.84681 32.6953C4.77603 32.6246 4.71988 32.5406 4.68157 32.4482C4.64325 32.3558 4.62354 32.2567 4.62354 32.1567C4.62354 32.0566 4.64325 31.9576 4.68157 31.8651C4.71988 31.7727 4.77603 31.6888 4.84681 31.6181L6.12556 30.3403C6.19618 30.2695 6.28006 30.2134 6.3724 30.1751C6.46473 30.1368 6.56372 30.1171 6.66368 30.1171C6.76365 30.1171 6.86263 30.1368 6.95497 30.1751C7.04731 30.2134 7.13119 30.2695 7.20181 30.3403L15.0196 38.1562C15.0904 38.2269 15.1466 38.3109 15.1849 38.4033C15.2232 38.4957 15.2429 38.5947 15.2429 38.6948C15.2429 38.7948 15.2232 38.8939 15.1849 38.9863C15.1466 39.0787 15.0904 39.1627 15.0196 39.2334L13.7409 40.5131Z" fill="#06D6A0"/>
<path fill-rule="evenodd" clip-rule="evenodd" d="M13.7419 40.5132C13.6713 40.5839 13.5874 40.6401 13.495 40.6784C13.4027 40.7167 13.3037 40.7364 13.2037 40.7364C13.1038 40.7364 13.0048 40.7167 12.9125 40.6784C12.8201 40.6401 12.7362 40.5839 12.6656 40.5132L11.9062 39.7501L14.2603 37.396L15.0234 38.1591C15.0942 38.2297 15.1503 38.3136 15.1886 38.406C15.2269 38.4983 15.2466 38.5973 15.2466 38.6972C15.2466 38.7972 15.2269 38.8962 15.1886 38.9885C15.1503 39.0809 15.0942 39.1648 15.0234 39.2354L13.7419 40.5132Z" fill="#31B395"/>
<path fill-rule="evenodd" clip-rule="evenodd" d="M9.93744 37.7813L7.57869 35.4272L1.85994 39.9272C1.70032 40.0531 1.58392 40.2255 1.52695 40.4206C1.46998 40.6157 1.47529 40.8237 1.54212 41.0157C1.71369 41.5051 1.94431 42.1622 2.09619 42.5982C2.14669 42.743 2.22874 42.8748 2.33639 42.9841C2.44404 43.0934 2.57462 43.1774 2.71869 43.2301L4.33775 43.8113C4.53048 43.8818 4.74053 43.8896 4.93798 43.8337C5.13543 43.7778 5.31021 43.6611 5.43744 43.5001L9.93744 37.7813Z" fill="#06D6A0"/>
<path fill-rule="evenodd" clip-rule="evenodd" d="M9.93755 37.7813L8.7938 36.6422L3.67505 43.5722L4.34161 43.8113C4.53385 43.8808 4.7431 43.8882 4.93977 43.8324C5.13644 43.7765 5.31057 43.6603 5.43755 43.5L9.93755 37.7813Z" fill="#31B395"/>
<defs>
<linearGradient id="paint0_linear_408_172" x1="19" y1="9" x2="41" y2="32.5" gradientUnits="userSpaceOnUse">
<stop stop-color="#FFC522"/>
<stop offset="1" stop-color="#EBB212"/>
</linearGradient>
</defs>
</svg>
