<svg xmlns="http://www.w3.org/2000/svg" xmlns:xlink="http://www.w3.org/1999/xlink" viewBox="0,0,256,256" width="50px" height="50px" fill-rule="nonzero"><g fill="#ffffff" fill-rule="nonzero" stroke="none" stroke-width="1" stroke-linecap="butt" stroke-linejoin="miter" stroke-miterlimit="10" stroke-dasharray="" stroke-dashoffset="0" font-family="none" font-weight="none" font-size="none" text-anchor="none" style="mix-blend-mode: normal"><g transform="scale(5.12,5.12)"><path d="M36.9375,2.84375c0,3.09375 -0.72266,4.46094 -1.65625,5.21875c-0.93359,0.75781 -2.35547,0.99609 -3.96875,1.21875c-1.61328,0.22266 -3.41406,0.42969 -4.90625,1.625c-1.23828,0.99219 -2.09375,2.63281 -2.34375,5.09375h-20.0625c-2.19922,0 -4,1.80078 -4,4v20c0,2.19922 1.80078,4 4,4h42c2.19922,0 4,-1.80078 4,-4v-20c0,-2.19922 -1.80078,-4 -4,-4h-19.90625c0.21484,-1.9375 0.81641,-2.93359 1.5625,-3.53125c0.92969,-0.74609 2.32031,-0.96484 3.9375,-1.1875c1.61719,-0.22266 3.44531,-0.44141 4.9375,-1.65625c1.49219,-1.21484 2.40625,-3.35547 2.40625,-6.78125zM4,18h42c1.11719,0 2,0.88281 2,2v20c0,1.11719 -0.88281,2 -2,2h-42c-1.11719,0 -2,-0.88281 -2,-2v-20c0,-1.11719 0.88281,-2 2,-2zM5,22v4h4v-4zM11,22v4h4v-4zM17,22v4h4v-4zM23,22v4h4v-4zM29,22v4h4v-4zM35,22v4h4v-4zM41,22v4h4v-4zM5,28v4h7v-4zM14,28v4h4v-4zM20,28v4h4v-4zM26,28v4h4v-4zM32,28v4h4v-4zM38,28v4h7v-4zM5,34v4h4v-4zM11,34v4h4v-4zM17,34v4h16v-4zM35,34v4h4v-4zM41,34v4h4v-4z"></path></g></g></svg>