<svg width="36" height="36" viewBox="0 0 36 36" fill="none" xmlns="http://www.w3.org/2000/svg">
<path d="M31.9372 6.80025L29.1989 4.06275C28.7827 3.64575 28.1047 3.64575 27.6877 4.06275L26.3992 5.35275L30.6472 9.60075L31.9372 8.31225C32.3542 7.8945 32.3542 7.21875 31.9372 6.80025Z" fill="#C94F60"/>
<path d="M5.17875 26.5725L3.75 32.25L9.42825 30.8205L10.0237 25.8953L5.17875 26.5725Z" fill="#F0F0F0"/>
<path d="M27.0239 13.224L9.42893 30.8197L5.18018 26.571L22.7752 8.97522L27.0239 13.224Z" fill="#0CBB6A"/>
<path d="M22.7722 8.97596L26.3962 5.35046L30.6472 9.59846L27.0232 13.224L22.7722 8.97596Z" fill="url(#paint0_linear_408_101)"/>
<path d="M4.47375 29.379L3.75 32.25L6.62025 31.5263L4.47375 29.379Z" fill="#787878"/>
<defs>
<linearGradient id="paint0_linear_408_101" x1="26.709" y1="5.62046" x2="26.709" y2="13.4407" gradientUnits="userSpaceOnUse">
<stop stop-color="#DEDEDE"/>
<stop offset="1" stop-color="#D6D6D6"/>
</linearGradient>
</defs>
</svg>
