<svg width="30" height="30" viewBox="0 0 30 30" fill="none" xmlns="http://www.w3.org/2000/svg">
<path d="M25 25.625H5C3.625 25.625 2.5 24.5 2.5 23.125V6.875C2.5 5.5 3.625 4.375 5 4.375H25C26.375 4.375 27.5 5.5 27.5 6.875V23.125C27.5 24.5 26.375 25.625 25 25.625Z" fill="#47A4D6"/>
<path d="M21.875 8.125C21.3777 8.125 20.9008 8.32254 20.5492 8.67417C20.1975 9.02581 20 9.50272 20 10C20 10.4973 20.1975 10.9742 20.5492 11.3258C20.9008 11.6775 21.3777 11.875 21.875 11.875C22.3723 11.875 22.8492 11.6775 23.2008 11.3258C23.5525 10.9742 23.75 10.4973 23.75 10C23.75 9.50272 23.5525 9.02581 23.2008 8.67417C22.8492 8.32254 22.3723 8.125 21.875 8.125Z" fill="#B3DDF5"/>
<path d="M12.5 10L5.625 20H19.375L12.5 10Z" fill="#9AC9E3"/>
<path d="M19.375 13.75L14.375 20H24.375L19.375 13.75Z" fill="#B3DDF5"/>
<path d="M23.75 17.5C22.0924 17.5 20.5027 18.1585 19.3306 19.3306C18.1585 20.5027 17.5 22.0924 17.5 23.75C17.5 25.4076 18.1585 26.9973 19.3306 28.1694C20.5027 29.3415 22.0924 30 23.75 30C25.4076 30 26.9973 29.3415 28.1694 28.1694C29.3415 26.9973 30 25.4076 30 23.75C30 22.0924 29.3415 20.5027 28.1694 19.3306C26.9973 18.1585 25.4076 17.5 23.75 17.5V17.5Z" fill="#43A047"/>
<path d="M22.5 20H25V27.5H22.5V20Z" fill="white"/>
<path d="M20 22.5H27.5V25H20V22.5Z" fill="white"/>
</svg>
