<svg width="48" height="48" viewBox="0 0 48 48" fill="none" xmlns="http://www.w3.org/2000/svg">
<path d="M43.87 29.083C42.626 29.532 41.18 29.225 40.229 28.19C39.278 27.155 39.094 25.689 39.645 24.487C38.175 23.607 36.504 23.065 34.749 22.946C34.517 24.25 33.528 25.352 32.155 25.659C30.781 25.966 29.418 25.39 28.653 24.308C27.116 25.162 25.834 26.364 24.879 27.786C25.889 28.639 26.346 30.045 25.926 31.385C25.506 32.726 24.328 33.619 23.011 33.742C22.998 34.59 23.072 35.45 23.265 36.314C23.458 37.178 23.758 37.988 24.13 38.75C25.374 38.301 26.82 38.608 27.771 39.643C28.722 40.677 28.906 42.144 28.355 43.346C29.825 44.226 31.496 44.768 33.251 44.887C33.483 43.583 34.472 42.481 35.845 42.174C37.218 41.867 38.582 42.443 39.347 43.525C40.884 42.671 42.166 41.469 43.121 40.047C42.111 39.194 41.654 37.788 42.074 36.448C42.494 35.107 43.672 34.214 44.989 34.091C45.002 33.243 44.928 32.383 44.735 31.519C44.542 30.655 44.243 29.845 43.87 29.083Z" fill="url(#paint0_linear_408_202)"/>
<path d="M33.9999 39.84C37.2711 39.84 39.9229 37.1882 39.9229 33.917C39.9229 30.6458 37.2711 27.994 33.9999 27.994C30.7287 27.994 28.0769 30.6458 28.0769 33.917C28.0769 37.1882 30.7287 39.84 33.9999 39.84Z" fill="url(#paint1_linear_408_202)"/>
<path d="M34 37.522C35.991 37.522 37.605 35.908 37.605 33.917C37.605 31.926 35.991 30.312 34 30.312C32.009 30.312 30.395 31.926 30.395 33.917C30.395 35.908 32.009 37.522 34 37.522Z" fill="url(#paint2_linear_408_202)"/>
<path d="M43.87 29.083C42.626 29.532 41.18 29.225 40.229 28.19C39.278 27.155 39.094 25.689 39.645 24.487C38.175 23.607 36.504 23.065 34.749 22.946C34.517 24.25 33.528 25.352 32.155 25.659C30.781 25.966 29.418 25.39 28.653 24.308C27.116 25.162 25.834 26.364 24.879 27.786C25.889 28.639 26.346 30.045 25.926 31.385C25.506 32.726 24.328 33.619 23.011 33.742C22.998 34.59 23.072 35.45 23.265 36.314C23.458 37.178 23.758 37.988 24.13 38.75C25.374 38.301 26.82 38.608 27.771 39.643C28.722 40.677 28.906 42.144 28.355 43.346C29.825 44.226 31.496 44.768 33.251 44.887C33.483 43.583 34.472 42.481 35.845 42.174C37.218 41.867 38.582 42.443 39.347 43.525C40.884 42.671 42.166 41.469 43.121 40.047C42.111 39.194 41.654 37.788 42.074 36.448C42.494 35.107 43.672 34.214 44.989 34.091C45.002 33.243 44.928 32.383 44.735 31.519C44.542 30.655 44.243 29.845 43.87 29.083Z" fill="url(#paint3_linear_408_202)"/>
<path d="M36.715 10.626C35.522 10.777 34.3 10.219 33.661 9.11199C33.022 8.00599 33.149 6.66799 33.877 5.71099C32.748 4.63899 31.372 3.82699 29.839 3.37299C29.375 4.48499 28.279 5.26599 27 5.26599C25.721 5.26599 24.625 4.48499 24.161 3.37299C22.628 3.82599 21.252 4.63899 20.123 5.71099C20.85 6.66799 20.977 8.00599 20.339 9.11199C19.7 10.218 18.478 10.777 17.285 10.626C17.105 11.376 17 12.154 17 12.958C17 13.763 17.105 14.541 17.285 15.29C18.478 15.139 19.7 15.697 20.339 16.804C20.978 17.91 20.851 19.248 20.123 20.205C21.252 21.277 22.628 22.089 24.161 22.543C24.625 21.432 25.721 20.65 27 20.65C28.279 20.65 29.375 21.431 29.839 22.543C31.372 22.09 32.748 21.277 33.877 20.205C33.15 19.248 33.023 17.91 33.661 16.804C34.3 15.698 35.522 15.139 36.715 15.29C36.895 14.541 37 13.763 37 12.958C37 12.154 36.895 11.376 36.715 10.626Z" fill="url(#paint4_linear_408_202)"/>
<path d="M27 18.343C29.974 18.343 32.385 15.9321 32.385 12.958C32.385 9.98394 29.974 7.573 27 7.573C24.0259 7.573 21.615 9.98394 21.615 12.958C21.615 15.9321 24.0259 18.343 27 18.343Z" fill="url(#paint5_linear_408_202)"/>
<path d="M26.9999 16.236C28.8103 16.236 30.2779 14.7684 30.2779 12.958C30.2779 11.1476 28.8103 9.67999 26.9999 9.67999C25.1895 9.67999 23.7219 11.1476 23.7219 12.958C23.7219 14.7684 25.1895 16.236 26.9999 16.236Z" fill="url(#paint6_linear_408_202)"/>
<path d="M36.715 10.668C35.522 10.819 34.3 10.261 33.661 9.15398C33.022 8.04798 33.149 6.70998 33.877 5.75298C32.748 4.68098 31.372 3.86898 29.839 3.41498C29.375 4.52598 28.279 5.30798 27 5.30798C25.721 5.30798 24.625 4.52698 24.161 3.41498C22.628 3.86798 21.252 4.68098 20.123 5.75298C20.85 6.70998 20.977 8.04798 20.339 9.15398C19.7 10.26 18.478 10.819 17.285 10.668C17.105 11.417 17 12.195 17 13C17 13.805 17.105 14.583 17.285 15.332C18.478 15.181 19.7 15.739 20.339 16.846C20.978 17.952 20.851 19.29 20.123 20.247C21.252 21.319 22.628 22.131 24.161 22.585C24.625 21.474 25.721 20.692 27 20.692C28.279 20.692 29.375 21.473 29.839 22.585C31.372 22.132 32.748 21.319 33.877 20.247C33.15 19.29 33.023 17.952 33.661 16.846C34.3 15.74 35.522 15.181 36.715 15.332C36.895 14.583 37 13.805 37 13C37 12.195 36.895 11.417 36.715 10.668Z" fill="url(#paint7_linear_408_202)"/>
<path d="M27 18C29.7614 18 32 15.7614 32 13C32 10.2386 29.7614 8 27 8C24.2386 8 22 10.2386 22 13C22 15.7614 24.2386 18 27 18Z" fill="#D9D9D9"/>
<path d="M27 16C28.6569 16 30 14.6569 30 13C30 11.3431 28.6569 10 27 10C25.3431 10 24 11.3431 24 13C24 14.6569 25.3431 16 27 16Z" fill="#0D61A9"/>
<path d="M21.715 24.626C20.522 24.777 19.3 24.219 18.661 23.112C18.022 22.006 18.149 20.668 18.877 19.711C17.748 18.639 16.372 17.827 14.839 17.373C14.375 18.484 13.279 19.266 12 19.266C10.721 19.266 9.625 18.485 9.161 17.373C7.628 17.826 6.252 18.639 5.123 19.711C5.85 20.668 5.977 22.006 5.339 23.112C4.7 24.218 3.478 24.777 2.285 24.626C2.105 25.376 2 26.154 2 26.958C2 27.763 2.105 28.541 2.285 29.29C3.478 29.139 4.7 29.697 5.339 30.804C5.978 31.91 5.851 33.248 5.123 34.205C6.252 35.277 7.628 36.089 9.161 36.543C9.625 35.432 10.721 34.65 12 34.65C13.279 34.65 14.375 35.431 14.839 36.543C16.372 36.09 17.748 35.277 18.877 34.205C18.15 33.248 18.023 31.91 18.661 30.804C19.3 29.698 20.522 29.139 21.715 29.29C21.895 28.541 22 27.763 22 26.958C22 26.154 21.895 25.376 21.715 24.626Z" fill="url(#paint8_linear_408_202)"/>
<path d="M12 32.343C14.974 32.343 17.385 29.9321 17.385 26.958C17.385 23.9839 14.974 21.573 12 21.573C9.02594 21.573 6.61499 23.9839 6.61499 26.958C6.61499 29.9321 9.02594 32.343 12 32.343Z" fill="url(#paint9_linear_408_202)"/>
<path d="M11.9999 30.236C13.8103 30.236 15.2779 28.7684 15.2779 26.958C15.2779 25.1476 13.8103 23.68 11.9999 23.68C10.1895 23.68 8.72192 25.1476 8.72192 26.958C8.72192 28.7684 10.1895 30.236 11.9999 30.236Z" fill="url(#paint10_linear_408_202)"/>
<path d="M21.715 24.668C20.522 24.819 19.3 24.261 18.661 23.154C18.022 22.048 18.149 20.71 18.877 19.753C17.748 18.681 16.372 17.869 14.839 17.415C14.375 18.526 13.279 19.308 12 19.308C10.721 19.308 9.625 18.527 9.161 17.415C7.628 17.868 6.252 18.681 5.123 19.753C5.85 20.71 5.977 22.048 5.339 23.154C4.7 24.26 3.478 24.819 2.285 24.668C2.105 25.417 2 26.195 2 27C2 27.805 2.105 28.583 2.285 29.332C3.478 29.181 4.7 29.739 5.339 30.846C5.978 31.952 5.851 33.29 5.123 34.247C6.252 35.319 7.628 36.131 9.161 36.585C9.625 35.474 10.721 34.692 12 34.692C13.279 34.692 14.375 35.473 14.839 36.585C16.372 36.132 17.748 35.319 18.877 34.247C18.15 33.29 18.023 31.952 18.661 30.846C19.3 29.74 20.522 29.181 21.715 29.332C21.895 28.583 22 27.805 22 27C22 26.195 21.895 25.417 21.715 24.668Z" fill="url(#paint11_linear_408_202)"/>
<path d="M12 32C14.7614 32 17 29.7614 17 27C17 24.2386 14.7614 22 12 22C9.23858 22 7 24.2386 7 27C7 29.7614 9.23858 32 12 32Z" fill="#D9D9D9"/>
<path d="M12 30C13.6569 30 15 28.6569 15 27C15 25.3431 13.6569 24 12 24C10.3431 24 9 25.3431 9 27C9 28.6569 10.3431 30 12 30Z" fill="#0D61A9"/>
<path d="M34 40C37.3137 40 40 37.3137 40 34C40 30.6863 37.3137 28 34 28C30.6863 28 28 30.6863 28 34C28 37.3137 30.6863 40 34 40Z" fill="#D9D9D9"/>
<path d="M34 38C36.2091 38 38 36.2091 38 34C38 31.7909 36.2091 30 34 30C31.7909 30 30 31.7909 30 34C30 36.2091 31.7909 38 34 38Z" fill="#0D61A9"/>
<defs>
<linearGradient id="paint0_linear_408_202" x1="25.0546" y1="28.2385" x2="43.7532" y2="40.1086" gradientUnits="userSpaceOnUse">
<stop stop-color="#889097"/>
<stop offset="0.331" stop-color="#848C94"/>
<stop offset="0.669" stop-color="#78828B"/>
<stop offset="1" stop-color="#64717C"/>
</linearGradient>
<linearGradient id="paint1_linear_408_202" x1="38.9271" y1="37.0451" x2="29.0066" y2="30.7473" gradientUnits="userSpaceOnUse">
<stop stop-color="white"/>
<stop offset="0.242" stop-color="#F2F2F2"/>
<stop offset="1" stop-color="#CCCCCC"/>
</linearGradient>
<linearGradient id="paint2_linear_408_202" x1="29.9714" y1="31.3597" x2="37.0372" y2="35.8452" gradientUnits="userSpaceOnUse">
<stop stop-color="#0D61A9"/>
<stop offset="0.363" stop-color="#0E5FA4"/>
<stop offset="0.78" stop-color="#135796"/>
<stop offset="1" stop-color="#16528C"/>
</linearGradient>
<linearGradient id="paint3_linear_408_202" x1="25.0546" y1="28.2385" x2="43.7532" y2="40.1086" gradientUnits="userSpaceOnUse">
<stop stop-color="#889097"/>
<stop offset="0.331" stop-color="#848C94"/>
<stop offset="0.669" stop-color="#78828B"/>
<stop offset="1" stop-color="#64717C"/>
</linearGradient>
<linearGradient id="paint4_linear_408_202" x1="20.189" y1="6.14799" x2="34.426" y2="20.385" gradientUnits="userSpaceOnUse">
<stop stop-color="#889097"/>
<stop offset="0.331" stop-color="#848C94"/>
<stop offset="0.669" stop-color="#78828B"/>
<stop offset="1" stop-color="#64717C"/>
</linearGradient>
<linearGradient id="paint5_linear_408_202" x1="30.751" y1="16.71" x2="23.198" y2="9.157" gradientUnits="userSpaceOnUse">
<stop stop-color="white"/>
<stop offset="0.242" stop-color="#F2F2F2"/>
<stop offset="1" stop-color="#CCCCCC"/>
</linearGradient>
<linearGradient id="paint6_linear_408_202" x1="23.9329" y1="9.89199" x2="29.3129" y2="15.271" gradientUnits="userSpaceOnUse">
<stop stop-color="#0D61A9"/>
<stop offset="0.363" stop-color="#0E5FA4"/>
<stop offset="0.78" stop-color="#135796"/>
<stop offset="1" stop-color="#16528C"/>
</linearGradient>
<linearGradient id="paint7_linear_408_202" x1="20.189" y1="6.18898" x2="34.426" y2="20.426" gradientUnits="userSpaceOnUse">
<stop stop-color="#889097"/>
<stop offset="0.331" stop-color="#848C94"/>
<stop offset="0.669" stop-color="#78828B"/>
<stop offset="1" stop-color="#64717C"/>
</linearGradient>
<linearGradient id="paint8_linear_408_202" x1="5.189" y1="20.148" x2="19.426" y2="34.385" gradientUnits="userSpaceOnUse">
<stop stop-color="#889097"/>
<stop offset="0.331" stop-color="#848C94"/>
<stop offset="0.669" stop-color="#78828B"/>
<stop offset="1" stop-color="#64717C"/>
</linearGradient>
<linearGradient id="paint9_linear_408_202" x1="15.751" y1="30.71" x2="8.19799" y2="23.157" gradientUnits="userSpaceOnUse">
<stop stop-color="white"/>
<stop offset="0.242" stop-color="#F2F2F2"/>
<stop offset="1" stop-color="#CCCCCC"/>
</linearGradient>
<linearGradient id="paint10_linear_408_202" x1="8.93292" y1="23.892" x2="14.3129" y2="29.271" gradientUnits="userSpaceOnUse">
<stop stop-color="#0D61A9"/>
<stop offset="0.363" stop-color="#0E5FA4"/>
<stop offset="0.78" stop-color="#135796"/>
<stop offset="1" stop-color="#16528C"/>
</linearGradient>
<linearGradient id="paint11_linear_408_202" x1="5.189" y1="20.189" x2="19.426" y2="34.426" gradientUnits="userSpaceOnUse">
<stop stop-color="#889097"/>
<stop offset="0.331" stop-color="#848C94"/>
<stop offset="0.669" stop-color="#78828B"/>
<stop offset="1" stop-color="#64717C"/>
</linearGradient>
</defs>
</svg>
