<svg width="30" height="30" viewBox="0 0 30 30" fill="none" xmlns="http://www.w3.org/2000/svg">
<g clip-path="url(#clip0_410_327)">
<path d="M15 0.599976C6.72891 0.599976 0 6.57654 0 13.9195C0 17.4679 1.54453 20.7867 4.35703 23.3015C3.83672 24.8367 2.50312 25.8937 1.51172 26.6789C0.602344 27.3984 -0.05625 27.9187 0.140625 28.6547L0.203906 28.8961L0.419531 29.0203C0.965625 29.332 1.69219 29.4914 2.58516 29.4914C5.55469 29.4914 9.82266 27.7875 11.7023 26.9672C12.7711 27.1898 13.8328 27.3 14.9391 27.3C23.2125 27.3 29.9391 21.3234 29.9391 13.9804C29.9391 6.60232 23.2383 0.599976 15 0.599976ZM15.9609 20.4C15.9609 20.5195 15.9 20.639 15.7195 20.639H14.3414V20.5804C14.2195 20.5804 14.1 20.5195 14.1 20.3414V12.3C14.1 12.1804 14.1609 12.0609 14.3414 12.0609H15.7195C15.8414 12.0609 15.9609 12.1195 15.9609 12.3V20.4ZM15.9609 9.48044C15.9609 9.59998 15.9 9.71951 15.7195 9.71951H14.2805C14.1609 9.71951 14.0414 9.66091 14.0414 9.48044V7.91951C14.0414 7.79998 14.1 7.68044 14.2805 7.68044H15.7195C15.8414 7.68044 15.9609 7.73904 15.9609 7.91951V9.48044Z" fill="#14C2A3"/>
</g>
<defs>
<clipPath id="clip0_410_327">
<rect width="30" height="30" fill="white"/>
</clipPath>
</defs>
</svg>
