<svg xmlns="http://www.w3.org/2000/svg" xmlns:xlink="http://www.w3.org/1999/xlink" viewBox="0,0,256,256" width="50px" height="50px" fill-rule="nonzero"><g fill="#ffffff" fill-rule="nonzero" stroke="none" stroke-width="1" stroke-linecap="butt" stroke-linejoin="miter" stroke-miterlimit="10" stroke-dasharray="" stroke-dashoffset="0" font-family="none" font-weight="none" font-size="none" text-anchor="none" style="mix-blend-mode: normal"><g transform="scale(5.12,5.12)"><path d="M25,0c-6.07812,0 -11,4.78516 -11,10.71875v0.28125h7.5c0.55078,0 1,0.44922 1,1c0,0.55078 -0.44922,1 -1,1h-7.5v2h7.5c0.55078,0 1,0.44922 1,1c0,0.55078 -0.44922,1 -1,1h-7.5v2h7.5c0.55078,0 1,0.44922 1,1c0,0.55078 -0.44922,1 -1,1h-7.5v2.28125c0,5.93359 4.92188,10.71875 11,10.71875c6.07813,0 11,-4.78516 11,-10.71875v-2.28125h-7.5c-0.55469,0 -1,-0.44922 -1,-1c0,-0.55078 0.44531,-1 1,-1h7.5v-2h-7.5c-0.55469,0 -1,-0.44922 -1,-1c0,-0.55078 0.44531,-1 1,-1h7.5v-2h-7.5c-0.55469,0 -1,-0.44922 -1,-1c0,-0.55078 0.44531,-1 1,-1h7.5v-0.28125c0,-5.93359 -4.92187,-10.71875 -11,-10.71875zM9.8125,17.125c-0.41016,0.08594 -0.69922,0.45703 -0.6875,0.875v5c0,7.71484 5.5625,14.18359 12.875,15.59375v5.40625h6v-5.40625c7.3125,-1.41016 12.875,-7.87891 12.875,-15.59375v-5c0,-0.48437 -0.39062,-0.875 -0.875,-0.875c-0.48437,0 -0.875,0.39063 -0.875,0.875v5c0,7.80078 -6.32422,14.125 -14.125,14.125c-7.80078,0 -14.125,-6.32422 -14.125,-14.125v-5c0.00391,-0.25 -0.10156,-0.48828 -0.28516,-0.65625c-0.1875,-0.16797 -0.43359,-0.25 -0.68359,-0.21875c-0.03125,0 -0.0625,0 -0.09375,0zM15.5,46c-1.91406,0 -3.46875,1.5625 -3.46875,3.46875l-0.03125,0.53125l25.875,-0.0625l0.03125,-0.46875c0,-1.90625 -1.55469,-3.46875 -3.46875,-3.46875z"></path></g></g></svg>