<svg xmlns="http://www.w3.org/2000/svg" xmlns:xlink="http://www.w3.org/1999/xlink" viewBox="0,0,256,256" width="48px" height="48px" fill-rule="nonzero"><defs><linearGradient x1="18.5" y1="10" x2="18.5" y2="48" gradientUnits="userSpaceOnUse" id="color-1"><stop offset="0" stop-color="#a5fff1"></stop><stop offset="1" stop-color="#fcffc1" stop-opacity="0"></stop></linearGradient><linearGradient x1="28.529" y1="0.965" x2="44.41" y2="22.211" gradientUnits="userSpaceOnUse" id="color-2"><stop offset="0" stop-color="#ff571c"></stop><stop offset="1" stop-color="#feb905"></stop></linearGradient></defs><g transform=""><g fill="none" fill-rule="nonzero" stroke="none" stroke-width="1" stroke-linecap="butt" stroke-linejoin="miter" stroke-miterlimit="10" stroke-dasharray="" stroke-dashoffset="0" font-family="none" font-weight="none" font-size="none" text-anchor="none" style="mix-blend-mode: normal"><g transform="scale(5.33333,5.33333)"><path d="M15.068,46.578c4.458,-28.442 21.932,-32.578 21.932,-32.578v-4c-27.019,2.247 -35.115,21.02 -36.972,26.766c-0.161,0.497 0.397,0.902 0.792,0.578c1.293,-1.061 3.411,-2.658 5.557,-3.671c0.434,-0.205 0.873,0.282 0.654,0.722c-1.266,2.547 -3.072,6.582 -2.667,13.105c0.035,0.565 0.79,0.694 0.98,0.163c2.032,-5.701 5.086,-9.179 6.541,-10.607c0.313,-0.307 0.832,-0.085 0.847,0.363c0.121,3.699 0.815,7.09 1.353,9.219c0.138,0.548 0.896,0.499 0.983,-0.06z" fill="url(#color-1)"></path><path d="M37.214,0.324l2.991,6.71l7.305,0.772c0.47,0.05 0.659,0.632 0.308,0.949l-5.457,4.917l1.524,7.187c0.098,0.463 -0.398,0.822 -0.807,0.586l-6.363,-3.671l-6.363,3.671c-0.41,0.236 -0.905,-0.124 -0.807,-0.586l1.524,-7.187l-5.457,-4.917c-0.351,-0.316 -0.162,-0.899 0.308,-0.949l7.305,-0.772l2.991,-6.71c0.193,-0.432 0.806,-0.432 0.998,0z" fill="url(#color-2)"></path></g></g></g></svg>